<?xml version="1.0" encoding="utf-8"?>
<!-- Generator: Adobe Illustrator 22.0.1, SVG Export Plug-In . SVG Version: 6.00 Build 0)  -->
<svg version="1.1" id="Capa_1" xmlns="http://www.w3.org/2000/svg" xmlns:xlink="http://www.w3.org/1999/xlink" x="0px" y="0px"
	 viewBox="0 0 100 40.8" style="enable-background:new 0 0 100 40.8;" xml:space="preserve">
<style type="text/css">
	.st0{fill:#666565;}
	.st1{fill:#3C6AA5;}
	.st2{fill:#99AFC3;}
</style>
<g id="EDESK_x5F_LOGO">
	<path id="R" class="st0" d="M93.4,36.2c0-0.1,0-0.2,0-0.3c0,0,0,0,0-0.1c0.1-1.6,1.6-2.8,3.2-2.6c1.5,0.2,2.5,1.5,2.5,2.9
		c0,1.2-0.9,2.4-2.2,2.6c-0.1,0-0.3,0-0.4,0.1c-0.1,0-0.3,0-0.4,0c0,0,0,0-0.1,0c-1.2-0.1-2.3-1-2.5-2.2
		C93.5,36.5,93.5,36.3,93.4,36.2z M96.3,38.4c1.4,0,2.4-1,2.4-2.4c0-1.4-1-2.4-2.4-2.4c-1.4,0-2.4,1-2.4,2.4
		C93.9,37.4,95,38.4,96.3,38.4z M95.7,36.2c0,0.4,0,0.8,0,1.4c-0.2,0-0.4,0-0.6,0c0-1,0-2.2,0-3.2l0,0c0.5,0,1.1,0,1.7,0
		c0.1,0,0.1,0,0.2,0c0.5,0.1,0.7,0.5,0.7,0.9c0,0.4-0.3,0.7-0.7,0.8h-0.1l0,0c0.2,0.1,0.4,0.4,0.6,0.6s0.3,0.5,0.5,0.8
		c-0.2,0-0.3,0-0.5,0s-0.3-0.1-0.5-0.2c-0.1-0.3-0.3-0.5-0.5-0.7C96.3,36.2,96,36.1,95.7,36.2z M95.7,35.7c0.2,0,0.4,0,0.7,0
		c0.1,0,0.2,0,0.3,0c0.2,0,0.3-0.2,0.3-0.4s-0.1-0.3-0.3-0.4c-0.1,0-0.1,0-0.2,0c-0.2,0-0.5,0-0.8,0C95.7,35.1,95.7,35.4,95.7,35.7z
		"/>
	<g id="E">
		<path class="st1" d="M0.9,39.6L1,38.9c0-0.4,0.1-0.7,0.1-1.1c0.1-0.7,0.2-1.6,0.4-2.3c0.1-0.4,0.4-0.6,0.6-0.8c0,0,0.1,0,0.1-0.1
			c1.1-0.9,2.3-2,3.1-2.7c0.5-0.4,0.9-0.8,1.5-1.2c0.5-0.4,1-0.8,1.6-1.2c0.6-0.5,1.1-1,1.8-1.5c0.5-0.5,1.1-0.9,1.7-1.5
			c0.6-0.5,1.2-1,1.9-1.6c0.7-0.6,1.5-1.2,2.2-1.9c0.4-0.4,0.9-0.8,1.4-1.1c0.2-0.2,0.5-0.4,0.7-0.6l-0.4-0.7
			c-0.5-0.8-1-1.8-1.6-2.6c-0.5-0.8-1-1.7-1.5-2.6l-0.6-1.1l-0.5-0.9c-0.4-0.6-0.7-1.2-1.1-2c-1.1-1.9-3.3-5.6-3.4-5.8
			C8.7,5.3,8.3,4.7,8.1,4.3L7.8,4.1l1.5-3.1h17.1h1.4l-0.1,0.6c0,0.2-0.6,4.3-0.7,5.1l-0.1,0.4h-3.5l0.1-0.6c0.1-0.5,0.2-1,0.3-1.6
			c0-0.2,0-0.2-0.1-0.3c-0.1-0.1-0.6-0.5-2.1-0.5c-2.2,0-2.9,0-3.7,0c0,0-1.8,0-2.5,0L24,19.3L5.8,34.9h5.3c1.2,0,2.6,0,5,0
			c0.4,0,0.9,0,1.4-0.1c0.8-0.1,1.4-0.5,1.6-1c0-0.2,0.1-0.4,0.2-0.9l0.1-0.4h3.5l-1,7.1H0.9V39.6z"/>
	</g>
	<g id="DESK">
		<g>
			<path class="st2" d="M92.4,17.3H92c-1.6,0.2-2.8,0.3-3.5,0.3h-1.2c-0.7,0-1.9-0.1-3.3-0.3h-0.2l-0.5,0.5l-0.1,1l0.4,0.5h0.2
				c1.1,0.2,1.5,0.4,1.5,0.5c0,0-0.1,0.2-0.3,0.5l0,0c0,0.1-0.2,0.2-0.6,0.6L83.1,22c-0.4,0.3-0.7,0.5-0.7,0.6l-5.1,4.2l1.4-9.6
				c0.3-2,0.5-3.7,0.8-5.2c0.3-1.6,0.4-2.5,0.5-2.9c0.3-2.6,0.6-3.2,0.7-3.3l-0.2-0.3l-0.5-1l-2,0.3c-0.7,0.1-2.1,0.2-4,0.2h-1
				l-0.5,0.4l-0.1,1l0.4,0.5H73c1,0,1.8,0.2,2,0.5c0.2,0.3,0.3,0.7,0.3,1c-0.2,2-0.5,4.8-1,8.5l-1.4,9.4c-0.6-0.3-1.4-0.5-2.1-0.7
				l-3.1-0.7c-1.7-0.4-2.3-1-2.5-1.8c0-0.2-0.1-0.3-0.1-0.5c0-0.2,0-0.4,0-0.6c0.1-0.9,0.5-1.7,1.2-2.3c0.7-0.6,1.8-0.9,3-0.9
				c0.3,0,0.7,0,1,0.1l0.4-2.8c-0.4,0-0.7,0-1.1,0c-2.3,0-4.4,0.5-5.9,1.7c-0.3,0.2-0.6,0.5-0.9,0.7c-0.2-0.2-0.4-0.4-0.7-0.5
				c-0.9-0.6-1.9-1-2.8-1.2c-0.9-0.2-1.9-0.4-2.8-0.4c-2.7,0-5.2,0.8-7.4,2.4l0.3-1.9c0.3-2,0.5-3.7,0.8-5.2
				c0.2-1.6,0.4-2.5,0.4-2.9c0.3-2.4,0.6-3.1,0.7-3.3l0.3,0.1l-0.5-1l-2,0.3c-0.7,0.1-2.1,0.2-4,0.2h-1l-0.5,0.4l-0.1,1L44,6.9h0.2
				c1,0,1.8,0.2,2,0.5c0.2,0.3,0.3,0.7,0.3,1c-0.1,1.2-0.4,4.2-1,8.4L45,19.6c-1.5-2.1-3.7-3.2-6.8-3.2c-1.1,0-2.4,0.2-3.6,0.6
				c-1.2,0.4-2.4,1.1-3.6,2c-1.1,0.9-2.2,2.2-3.1,3.7c-0.8,1.6-1.5,3.4-1.8,5.4c-0.4,3.1,0.1,5.8,1.6,8c1.5,2.2,4.1,3.3,7.4,3.3
				c2.6,0,5-1,7.1-3c-0.2,0.8-0.3,1.2-0.4,1.5l-0.1,0.2l0.5,0.9h0.3c0.9-0.1,2-0.1,3.1-0.1h0.1l0.3-2.3c1.8,1.9,4.3,2.8,7.4,2.8
				c2.5,0,4.7-0.4,6.6-1.4c1.8,0.7,3.9,1,6,1c2.7,0,5-0.6,6.8-2c1.9-1.4,2.9-3,3.2-5.1c0.1-0.7,0.1-1.4,0-2l0.2-0.2l0,0l1.8-1.6
				c0.4,0.5,0.9,1.4,1.5,2.3l3,4.8c0.3,0.5,1,1.4,2.1,2.5c0.7,0.8,1.7,1.4,2.7,1.4c1.8,0,3,0,3.7-0.1h0.2l0.3-0.5v-0.9l-0.3-0.5
				h-0.3c-0.3,0-0.6-0.1-0.9-0.2c-0.3-0.1-0.5-0.2-0.8-0.4l-0.7-0.6c-0.1-0.1-0.3-0.3-0.6-0.7c-0.3-0.4-0.5-0.6-0.6-0.7l-0.6-0.9
				c-0.4-0.6-0.5-0.8-0.6-0.8l-3.3-5c-0.3-0.5-0.7-1.1-1.1-2.1l1.8-1.5c2.5-2.1,4.6-3.5,6.2-4.4c0.1,0,0.5-0.2,2.2-0.5h0.1l0.5-0.4
				l0.1-1L92.4,17.3z M51.9,21.2c1.2-1,2.8-1.6,4.5-1.6c1.2,0,2.3,0.3,3,0.9c0.7,0.6,1.1,1.4,1.4,2.5l0,0c0.1,0.3,0.1,0.6,0,0.8
				c0,0.3-0.2,0.5-0.6,0.5c-3.3,0.2-6.7,0.3-9.7,0.3h-1C49.9,23.3,50.7,22.2,51.9,21.2z M70.4,35.6c-0.8,0.7-2.2,1.1-4,1.1
				c-1.6,0-2.7-0.4-3.4-1.1c-0.7-0.7-0.9-1.8-0.7-3.1v-0.2L62,31.6h-1.8L59,35.9c-1,0.2-2.2,0.4-3.4,0.4c-2.8,0-4.8-0.7-5.9-2.3
				c-0.5-0.7-0.9-1.5-1.1-2.4H47h-3.2h-0.6c-0.4,0.8-1.1,1.7-2.2,2.6c-1.5,1.2-3.1,1.9-5.1,1.9c-2,0-3.4-0.7-4.3-2.2
				c-0.8-1.6-1.1-3.4-0.8-5.6c0.3-2.3,1.1-4.3,2.5-5.9c1.4-1.7,3-2.4,5.1-2.4c2,0,3.3,0.6,4.4,1.9c0.9,1.2,1.5,2.6,1.5,3.7L44,27.4
				l0,0H48h0.4l0,0h5c1.1,0,2.9,0,5.1,0c1.6,0,2.8,0,3.9,0c0.8,0.7,2,1.1,2.9,1.4l4.3,1.1c0.8,0.2,1.5,0.5,1.8,1
				c0.4,0.6,0.5,0.9,0.5,1c0,0.3,0,0.7-0.1,1.2C71.8,34.1,71.2,34.9,70.4,35.6z"/>
		</g>
	</g>
</g>
</svg>
